<svg width="120" height="48" viewBox="0 0 120 48" fill="none" xmlns="http://www.w3.org/2000/svg">
<path d="M22.094 0V19.9399L0 0V27.5861L22.094 47.5226V27.5861L44.188 47.5226V19.9399" fill="#FFAA00"/>
<path d="M63.1092 7.10889V14.8928H63.0753L57.6824 7.10889H55.2356V19.9399H57.9166V12.1942H57.949L63.3573 19.9399H65.7934V7.10889" fill="#30120B"/>
<path d="M81.1342 17.9794C80.3761 17.9794 80.2574 17.3906 80.2574 16.4286V12.8211H82.5425V10.9352H80.2775V8.22009L77.7012 8.82715V10.9352H76.5178V12.8211H77.6827V16.3705C77.6827 17.8865 77.7197 18.6461 78.2682 19.356C78.7305 19.9482 79.5009 20.1853 80.4685 20.1853C81.2251 20.1919 81.9746 20.028 82.6688 19.7043L82.997 19.5385L82.655 17.651C82.2697 17.7787 81.6503 17.9827 81.1388 17.9827" fill="#30120B"/>
<path d="M85.2082 9.86212C84.5533 9.86212 83.8137 9.36454 83.8137 8.47718C83.8137 7.58982 84.5025 7.05243 85.2082 7.05243C85.9139 7.05243 86.5826 7.57158 86.5826 8.45728C86.5826 9.34298 85.8615 9.86212 85.2082 9.86212" fill="#30120B"/>
<path d="M86.5115 10.9352H83.9321V19.9399H86.5115V10.9352Z" fill="#30120B"/>
<path d="M102.736 10.6765C101.737 10.6785 100.769 11.0445 99.9875 11.7147L99.8334 10.9352H97.5623V19.9382H100.142V13.8925C100.635 13.4493 101.252 13.196 101.895 13.1727C102.684 13.1727 102.874 13.6918 102.874 14.4664V19.9398H105.456V13.9688C105.456 11.9519 104.629 10.6765 102.736 10.6765Z" fill="#30120B"/>
<path d="M116.823 7.20668V19.9382H119.404V6.60626" fill="#30120B"/>
<path d="M72.9339 17.1648C72.729 17.4434 72.1096 17.941 71.4917 17.941C70.1866 17.941 69.9092 16.5726 69.9092 15.4265C69.9092 13.7099 70.7012 12.9718 71.5456 12.9718C72.0602 12.9718 72.6242 13.3035 72.9324 13.5987L72.9339 17.1648ZM75.7721 18.0787C75.5857 18.0787 75.5148 17.9476 75.5148 17.7635V10.9367H73.2852L73.108 11.7129C72.7475 11.1573 71.9709 10.6763 71.0125 10.6763C69.1203 10.6763 67.2297 12.3349 67.2297 15.614C67.2297 18.072 68.3823 20.1801 70.8569 20.1801C71.6997 20.1801 72.7998 19.6643 73.2636 19.0888H73.2975C73.5194 19.6245 73.9308 19.9396 74.9478 19.9396H76.2713V18.0787" fill="#30120B"/>
<path d="M112.354 17.1648C112.15 17.4434 111.532 17.941 110.912 17.941C109.607 17.941 109.33 16.5726 109.33 15.4265C109.33 13.7099 110.12 12.9718 110.963 12.9718C111.477 13.0085 111.965 13.2292 112.35 13.5987L112.354 17.1648ZM115.193 18.0787C115.003 18.0787 114.935 17.9476 114.935 17.7635V10.9367H112.703L112.527 11.7129C112.166 11.1573 111.391 10.6763 110.428 10.6763C108.541 10.6763 106.647 12.3349 106.647 15.614C106.647 18.072 107.801 20.1801 110.276 20.1801C111.116 20.1801 112.219 19.6643 112.683 19.0888H112.717C112.94 19.6245 113.353 19.9396 114.367 19.9396H115.687V18.0787" fill="#30120B"/>
<path d="M92.003 17.9993C90.7318 17.9993 90.3682 16.7603 90.3682 15.3919C90.3682 14.0236 90.7811 12.8576 92.0523 12.8576C93.3235 12.8576 93.6825 14.0617 93.6825 15.4251C93.6825 16.7885 93.2696 17.9943 91.9968 17.9943L92.003 17.9993ZM92.0847 10.6715C89.2958 10.6715 87.6995 12.6851 87.6995 15.4052C87.6995 18.1585 89.0569 20.1754 91.963 20.1754C94.7488 20.1754 96.3451 18.1602 96.3451 15.4417C96.3451 12.6851 94.9876 10.6715 92.0847 10.6715" fill="#30120B"/>
<path d="M60.4099 34.1674C59.9525 34.3088 59.4771 34.371 59.0016 34.3515H57.9353V30.8982C58.208 30.8982 58.5871 30.8816 58.7935 30.8816C59.4638 30.8816 59.963 30.8982 60.4623 31.1387C60.9615 31.3792 61.3051 31.8967 61.3051 32.673C61.3184 32.991 61.2394 33.3057 61.079 33.5732C60.9185 33.8407 60.6847 34.0478 60.4099 34.1657V34.1674ZM57.9353 25.9821H58.7781C59.8259 25.9821 60.4623 26.4233 60.4623 27.309C60.4623 28.47 59.8768 28.8648 58.5871 28.8648H57.9353V25.9821ZM61.2866 29.5879V29.568C62.4746 29.2894 63.1356 28.1615 63.1356 26.9142C63.1356 24.7299 61.641 23.7629 58.5809 23.7629H55.2373V36.5923H59.188C61.6641 36.5923 64.0709 35.8724 64.0709 32.8023C64.0709 30.9563 62.9029 29.7704 61.2866 29.5879Z" fill="#30120B"/>
<path d="M89.6025 31.4175L92.1803 27.5911H89.3914L87.2974 31.1952H87.2651V23.2538L84.6873 23.8592V36.5924H87.2651V32.469H87.2974L89.4407 36.5924H92.5224" fill="#30120B"/>
<path d="M80.3021 27.3287C79.3022 27.3317 78.3322 27.6955 77.5471 28.3621L77.4023 27.5875H75.1265V36.5888H77.7058V30.5464C78.1997 30.1033 78.8167 29.85 79.4593 29.8266C80.2482 29.8266 80.4393 30.3458 80.4393 31.122V36.5954H83.0155V30.6244C83.0155 28.6092 82.1927 27.3321 80.3021 27.3321" fill="#30120B"/>
<path d="M70.6566 33.8208C70.4517 34.0978 69.8338 34.5971 69.2144 34.5971C67.9078 34.5971 67.632 33.2287 67.632 32.0843C67.632 30.3626 68.424 29.6229 69.2668 29.6229C69.7799 29.6229 70.3454 29.9546 70.6535 30.2515L70.6566 33.8208ZM73.4979 34.7264C73.3115 34.7264 73.2406 34.5971 73.2406 34.413V27.5927H71.0064L70.8307 28.3623C70.4702 27.8067 69.6951 27.324 68.7352 27.324C66.8415 27.324 64.9509 28.9826 64.9509 32.2617C64.9509 34.7198 66.1019 36.8262 68.578 36.8262C69.4209 36.8262 70.521 36.3087 70.9864 35.7365H71.0203C71.2437 36.2739 71.6535 36.5874 72.6705 36.5874H73.9941V34.7264" fill="#30120B"/>
</svg>
